<svg width="230" height="191" viewBox="0 0 230 191" fill="none" xmlns="http://www.w3.org/2000/svg">
<path fill-rule="evenodd" clip-rule="evenodd" d="M78.1196 190.152H145.735L145.743 97.6767L78.1196 70.9803V190.152Z" fill="#00ACD7"/>
<path fill-rule="evenodd" clip-rule="evenodd" d="M78.1196 0V59.5849L145.743 86.2977L145.735 0H78.1196Z" fill="#00ACD7"/>
<path fill-rule="evenodd" clip-rule="evenodd" d="M0 0V119.172L67.6216 92.4755L67.6143 0H0Z" fill="#00ACD7"/>
<path fill-rule="evenodd" clip-rule="evenodd" d="M0 190.125H67.6143L67.6216 103.829L0 130.54V190.125Z" fill="#00ACD7"/>
<path d="M39.5 127.234C39.1 127.234 39 127.034 39.2 126.734L41.3 124.034C41.5 123.734 42 123.534 42.4 123.534H78.1C78.5 123.534 78.6 123.834 78.4 124.134L76.7 126.734C76.5 127.034 76 127.334 75.7 127.334L39.5 127.234Z" fill="#383838"/>
<path d="M24.4 136.434C24 136.434 23.9 136.234 24.1 135.934L26.2 133.234C26.4 132.934 26.9 132.734 27.3 132.734H72.9C73.3 132.734 73.5 133.034 73.4 133.334L72.6 135.734C72.5 136.134 72.1 136.334 71.7 136.334L24.4 136.434Z" fill="#383838"/>
<path d="M48.6 145.634C48.2 145.634 48.1 145.334 48.3 145.034L49.7 142.534C49.9 142.234 50.3 141.934 50.7 141.934H70.7C71.1 141.934 71.3 142.234 71.3 142.634L71.1 145.034C71.1 145.434 70.7 145.734 70.4 145.734L48.6 145.634Z" fill="#383838"/>
<path d="M152.4 125.434C146.1 127.034 141.8 128.234 135.6 129.834C134.1 130.234 134 130.334 132.7 128.834C131.2 127.134 130.1 126.034 128 125.034C121.7 121.934 115.6 122.834 109.9 126.534C103.1 130.934 99.6 137.434 99.7 145.534C99.8 153.534 105.3 160.134 113.2 161.234C120 162.134 125.7 159.734 130.2 154.634C131.1 153.534 131.9 152.334 132.9 150.934C129.3 150.934 124.8 150.934 113.6 150.934C111.5 150.934 111 149.634 111.7 147.934C113 144.834 115.4 139.634 116.8 137.034C117.1 136.434 117.8 135.434 119.3 135.434C124.4 135.434 143.2 135.434 155.7 135.434C155.5 138.134 155.5 140.834 155.1 143.534C154 150.734 151.3 157.334 146.9 163.134C139.7 172.634 130.3 178.534 118.4 180.134C108.6 181.434 99.5 179.534 91.5 173.534C84.1 167.934 79.9 160.534 78.8 151.334C77.5 140.434 80.7 130.634 87.3 122.034C94.4 112.734 103.8 106.834 115.3 104.734C124.7 103.034 133.7 104.134 141.8 109.634C147.1 113.134 150.9 117.934 153.4 123.734C154 124.634 153.6 125.134 152.4 125.434Z" fill="#383838"/>
<path d="M185.5 180.734C176.4 180.534 168.1 177.934 161.1 171.934C155.2 166.834 151.5 160.334 150.3 152.634C148.5 141.334 151.6 131.334 158.4 122.434C165.7 112.834 174.5 107.834 186.4 105.734C196.6 103.934 206.2 104.934 214.9 110.834C222.8 116.234 227.7 123.534 229 133.134C230.7 146.634 226.8 157.634 217.5 167.034C210.9 173.734 202.8 177.934 193.5 179.834C190.8 180.334 188.1 180.434 185.5 180.734ZM209.3 140.334C209.2 139.034 209.2 138.034 209 137.034C207.2 127.134 198.1 121.534 188.6 123.734C179.3 125.834 173.3 131.734 171.1 141.134C169.3 148.934 173.1 156.834 180.3 160.034C185.8 162.434 191.3 162.134 196.6 159.434C204.5 155.334 208.8 148.934 209.3 140.334Z" fill="#383838"/>
</svg>
